<svg width="61" height="70" xmlns="http://www.w3.org/2000/svg" viewBox="0 0 61.36 70.51"><defs><style>.cls-1{fill:#ff6f68;}.cls-1,.cls-2{stroke:#b04a9a;stroke-miterlimit:10;stroke-width:3px;}.cls-2{fill:#ffb768;}</style></defs><title>b_b</title><g id="Layer_2" data-name="Layer 2"><g id="Pieces"><path class="cls-1" d="M3.14,62.07H58.62s2.78,4.86,0,6.94H3.14C-.55,66.93,3.14,62.07,3.14,62.07Z"/><path class="cls-1" d="M5.92,60.68q1.94-1.56,4.13-3.14a94.15,94.15,0,0,1,8.62-5.48,11.82,11.82,0,0,1-5.35-2.47,12.82,12.82,0,0,1-4.05-6.93,18.39,18.39,0,0,1,1.27-13.41,20.69,20.69,0,0,1,7.4-7.4c4.12-2.64,7.24-2.87,7.4-4.63.17-1.95-3.63-2.54-4.32-5.9-.5-2.44,1-4.63,1.57-5.48A11.07,11.07,0,0,1,30,1.51,10,10,0,0,1,37.33,5.2a7.54,7.54,0,0,1,1.57,5.49c-.65,3.66-4.66,4.56-4.32,6.53.28,1.61,3,1.49,6.47,3.7a19.31,19.31,0,0,1,6.48,7.4,19.43,19.43,0,0,1,2.77,12c-.23,1.88-.69,5.53-3.7,8.32a11.46,11.46,0,0,1-5.35,2.76c2.75,1.58,5.64,3.4,8.61,5.49q2.7,1.89,5.06,3.77Z"/><path class="cls-2" d="M44.75,24.62c-1.68,2.16-4.65,2.68-7.39,2.78-2,.06-3.28-.95-4.63,0a4.34,4.34,0,0,0-.92,5.54c1.18,1.68,4.36.81,7.4,0a41.15,41.15,0,0,0,9-3.33"/></g></g></svg>