<svg width="61" height="70" xmlns="http://www.w3.org/2000/svg" viewBox="0 0 46.05 53.97"><defs><style>.cls-1{fill:#00cdac;}.cls-1,.cls-2{stroke:#0041d3;stroke-miterlimit:10;stroke-width:3px;}.cls-2{fill:#c5a8c9;}</style></defs><title>b_w</title><g id="Layer_2" data-name="Layer 2"><g id="Pieces"><path class="cls-1" d="M2.71,47.23H43.64s2,3.67,0,5.24H2.71C0,50.9,2.71,47.23,2.71,47.23Z"/><path class="cls-1" d="M4.76,46.19c1-.79,2-1.58,3.05-2.38a69.5,69.5,0,0,1,6.36-4.14,8.45,8.45,0,0,1-3.95-1.86,9.77,9.77,0,0,1-3-5.23,14.22,14.22,0,0,1,.94-10.13,15.45,15.45,0,0,1,5.46-5.59c3-2,5.34-2.16,5.45-3.49s-2.67-1.91-3.18-4.45a5.7,5.7,0,0,1,1.15-4.14,8.17,8.17,0,0,1,5.44-3.27A7.26,7.26,0,0,1,27.93,4.3a5.74,5.74,0,0,1,1.16,4.14c-.48,2.77-3.44,3.44-3.19,4.93.21,1.22,2.23,1.13,4.78,2.8a14.41,14.41,0,0,1,4.77,5.58,15,15,0,0,1,2,9.08,9.88,9.88,0,0,1-2.73,6.28,8.52,8.52,0,0,1-4,2.09c2,1.19,4.16,2.56,6.36,4.14q2,1.42,3.73,2.85Z"/><path class="cls-2" d="M33.41,19C32.16,20.59,30,21,28,21.05c-1.47.05-2.42-.71-3.41,0a3.33,3.33,0,0,0-.68,4.19c.87,1.27,3.22.61,5.45,0A29.37,29.37,0,0,0,36,22.73"/></g></g></svg>