<svg width="61" height="73" xmlns="http://www.w3.org/2000/svg" viewBox="0 0 61.28 73.93"><defs><style>.cls-1{fill:#00cdac;stroke:#0041d3;stroke-miterlimit:10;stroke-width:3px;}</style></defs><title>k_w</title><g id="Layer_2" data-name="Layer 2"><g id="Pieces"><path class="cls-1" d="M3.06,72.43H58.22c3.5-3.51,0-7,0-7H3.06C-.45,68.92,3.06,72.43,3.06,72.43Z"/><path class="cls-1" d="M10.06,65.42H5.68c-2.62-2.63,0-5.25,0-5.25h6.13L10.06,36.53H51.22L49.46,60.17h6.13c2.63,2.62,0,5.25,0,5.25H10.06Z"/><path class="cls-1" d="M4.81,36.53H55.59c5.26-2.63,0-5.26,0-5.26H4.81C-.45,33.9,4.81,36.53,4.81,36.53Z"/><path class="cls-1" d="M10.06,31.27H51.22l5.25-9.63a100.23,100.23,0,0,0-52.54,0Z"/><path class="cls-1" d="M17.07,19c3.35-.81,23.39-.64,27.14,0l3.5-3.5C44.64,14.11,34.58,12,31.08,12c-4.38,0-12.26,1.75-17.52,3.5Z"/><path class="cls-1" d="M33.7,12,32,10.26V7.63h3.5V5H32V1.5H29.33V5H25.82V7.63h3.51v2.63L27.57,12c1.44-.27,2.58.1,4.38,0A6,6,0,0,1,33.7,12Z"/></g></g></svg>