<svg width="56" height="70" xmlns="http://www.w3.org/2000/svg" viewBox="0 0 55.66 70.06"><defs><style>.cls-1{fill:#ff6f68;stroke:#b04a9a;stroke-miterlimit:10;stroke-width:3px;}</style></defs><title>p_b</title><g id="Layer_2" data-name="Layer 2"><g id="Pieces"><path class="cls-1" d="M28.13,68.13l22.13.42c4.71-1.7,3.83-7.12,3.83-7.12A15,15,0,0,0,50,55.05c-2.48-2.18-4-1.67-7.18-3.74A18.64,18.64,0,0,1,36.42,44a17.89,17.89,0,0,1-1.78-11.73A60.69,60.69,0,0,1,37.7,26c1-1.88,2.65-3.29,2.29-4.46C35.81,8,27,1.52,27,1.52h-.39S18,7.64,14.31,21.07c-.32,1.15,1.42,2.63,2.44,4.55A66.46,66.46,0,0,1,20,32a17.37,17.37,0,0,1-1.38,11.67,16.81,16.81,0,0,1-6.21,7.08c-3.06,2-4.64,1.38-7,3.47a13.65,13.65,0,0,0-3.84,6.22s-.7,5.39,4.07,7.28l22.13.42Z"/></g></g></svg>