<svg width="56" height="70" xmlns="http://www.w3.org/2000/svg" viewBox="0 0 39.3 50.32"><defs><style>.cls-1{fill:#00cdac;stroke:#0041d3;stroke-miterlimit:10;stroke-width:3px;}</style></defs><title>p_w</title><g id="Layer_2" data-name="Layer 2"><g id="Pieces"><path class="cls-1" d="M19.86,48.51l15.25.3c3.25-1.2,2.64-5,2.64-5A10.47,10.47,0,0,0,35,39.29c-1.71-1.54-2.79-1.19-4.95-2.64a13.16,13.16,0,0,1-4.44-5.17,12.92,12.92,0,0,1-1.23-8.27c.1-.43.79-1.75,2.11-4.41.66-1.32,1.83-2.32,1.58-3.14C25.15,6.08,19.09,1.51,19.09,1.51h-.28s-5.92,4.33-8.48,13.8c-.22.81,1,1.86,1.68,3.21A49.19,49.19,0,0,1,14.27,23a12.5,12.5,0,0,1-1,8.23,11.83,11.83,0,0,1-4.27,5c-2.11,1.37-3.21,1-4.86,2.44a9.74,9.74,0,0,0-2.66,4.4S1,46.88,4.33,48.21l15.26.3Z"/></g></g></svg>