<svg width="60.6" height="71.5" xmlns="http://www.w3.org/2000/svg" viewBox="0 0 60.59 71.5"><defs><style>.cls-1{fill:#ff6f68;stroke:#b04a9a;stroke-miterlimit:10;stroke-width:3px;}</style></defs><title>q_b</title><g id="Layer_2" data-name="Layer 2"><g id="Pieces"><path class="cls-1" d="M2.57,70H58a3.34,3.34,0,0,0,0-4.82H2.57A3.34,3.34,0,0,0,2.57,70Z"/><path class="cls-1" d="M4.87,65.18H55.7c2.21-1.61,0-3.22,0-3.22H4.87C2.66,63.57,4.87,65.18,4.87,65.18Z"/><path class="cls-1" d="M39,29.82a121,121,0,0,0,3.62,19c2,6.63,6.55,11.3,9.42,12.69H7.79c3.31-2,8.86-6.58,10.87-12.69a94.74,94.74,0,0,0,3.63-19Z"/><path class="cls-1" d="M17,29.82H45.16c2.41-1.61,0-5.62,0-5.62H17C13.82,26.61,17,29.82,17,29.82Z"/><path class="cls-1" d="M11.41,13.75,17,16.16a13.06,13.06,0,0,0,4.82,1.61,12.67,12.67,0,0,0,3.21,0l5.63-7.23,6.43,7.23s3.21,1.61,5.62,0l6.43-4a17.91,17.91,0,0,1-.4,3.11,17.72,17.72,0,0,1-3.62,7.34H17a32.35,32.35,0,0,1-5.63-10.45Z"/><circle class="cls-1" cx="51.59" cy="10.54" r="4.02"/><circle class="cls-1" cx="9.8" cy="10.54" r="4.02"/><circle class="cls-1" cx="30.7" cy="5.52" r="4.02"/></g></g></svg>