<svg width="54" height="70" xmlns="http://www.w3.org/2000/svg" viewBox="0 0 52.83 66.62"><defs><style>.cls-1{fill:#ff6f68;stroke:#b04a9a;stroke-miterlimit:10;stroke-width:3px;}</style></defs><title>r_b</title><g id="Layer_2" data-name="Layer 2"><g id="Pieces"><path class="cls-1" d="M2.52,65.12h47.8c2.28-2.28,0-3.79,0-3.79a126.65,126.65,0,0,0-41.18-1.1q-3.53.5-6.62,1.1a2.34,2.34,0,0,0-1,2.15A2.4,2.4,0,0,0,2.52,65.12Z"/><path class="cls-1" d="M47.29,18.08A13.84,13.84,0,0,1,45,22.63a76.65,76.65,0,0,0-37.18,0,32.67,32.67,0,0,1-1.52-3.8A32.17,32.17,0,0,1,4.79,7.45l3-1.51,3,4.55C13.39,10,17.44,8.72,20,8.21c-.14-.53-1.71-3,0-4.55a26.17,26.17,0,0,1,3.79-1.52c3.39-1.2,4.08-.42,5.32,0a23.15,23.15,0,0,1,3.79,1.52c1.47,1.4.12,4,0,4.55l8.35,1.52c1-1.52,2-3.79,3-5.31a8.21,8.21,0,0,1,3.8,2.27C48.74,8,48.83,12.65,47.29,18.08Z"/><path class="cls-1" d="M45,22.63c.08.06,2.35.67,2.28,1.52a6.2,6.2,0,0,1-.76,2.27c-.76.76-4.17-.66-4.55-.76-3-.76-6.52-1.54-15.18-1.51a91.77,91.77,0,0,0-15.94,1.51c-2.27.76-3.79,1.52-5.31-.76C5,24,6.19,23.29,7.83,22.63c5.25-1.76,9.3-2.22,19-2.28C35.67,20.3,39.94,21.12,45,22.63Z"/><path class="cls-1" d="M10.86,25.66l-3,34.91a113.8,113.8,0,0,1,20.49-1.52A112,112,0,0,1,45,60.57L42,25.66a80.88,80.88,0,0,0-31.12,0Z"/></g></g></svg>